<mxfile host="Electron" modified="2024-02-25T22:02:26.747Z" agent="Mozilla/5.0 (Windows NT 10.0; Win64; x64) AppleWebKit/537.36 (KHTML, like Gecko) draw.io/23.1.5 Chrome/120.0.6099.109 Electron/28.1.0 Safari/537.36" etag="yTdzu1qYnVA1Nf7QewOI" version="23.1.5" type="device">
  <diagram name="Page-1" id="2pYSDeJAYH8BEvTdvZWa">
    <mxGraphModel dx="890" dy="428" grid="1" gridSize="10" guides="1" tooltips="1" connect="1" arrows="1" fold="1" page="1" pageScale="1" pageWidth="827" pageHeight="1169" math="0" shadow="0">
      <root>
        <mxCell id="0" />
        <mxCell id="1" parent="0" />
        <mxCell id="UM_m8JcwFltim1ismA3V-1" value="frontend" style="whiteSpace=wrap;html=1;aspect=fixed;" vertex="1" parent="1">
          <mxGeometry x="240" y="280" width="80" height="80" as="geometry" />
        </mxCell>
        <mxCell id="UM_m8JcwFltim1ismA3V-2" value="backend" style="whiteSpace=wrap;html=1;aspect=fixed;" vertex="1" parent="1">
          <mxGeometry x="480" y="280" width="80" height="80" as="geometry" />
        </mxCell>
        <mxCell id="UM_m8JcwFltim1ismA3V-3" value="" style="endArrow=none;html=1;rounded=0;exitX=1;exitY=0.5;exitDx=0;exitDy=0;entryX=0;entryY=0.5;entryDx=0;entryDy=0;" edge="1" parent="1" source="UM_m8JcwFltim1ismA3V-1" target="UM_m8JcwFltim1ismA3V-2">
          <mxGeometry width="50" height="50" relative="1" as="geometry">
            <mxPoint x="390" y="350" as="sourcePoint" />
            <mxPoint x="440" y="300" as="targetPoint" />
          </mxGeometry>
        </mxCell>
        <mxCell id="UM_m8JcwFltim1ismA3V-5" value="" style="whiteSpace=wrap;html=1;aspect=fixed;" vertex="1" parent="1">
          <mxGeometry x="30" y="640" width="750" height="750" as="geometry" />
        </mxCell>
        <mxCell id="UM_m8JcwFltim1ismA3V-6" value="" style="endArrow=none;html=1;rounded=0;entryX=0.75;entryY=0;entryDx=0;entryDy=0;exitX=0.75;exitY=1;exitDx=0;exitDy=0;" edge="1" parent="1" source="UM_m8JcwFltim1ismA3V-5" target="UM_m8JcwFltim1ismA3V-5">
          <mxGeometry width="50" height="50" relative="1" as="geometry">
            <mxPoint x="320" y="1040" as="sourcePoint" />
            <mxPoint x="370" y="990" as="targetPoint" />
          </mxGeometry>
        </mxCell>
        <mxCell id="UM_m8JcwFltim1ismA3V-10" value="" style="endArrow=none;html=1;rounded=0;exitX=-0.003;exitY=0.093;exitDx=0;exitDy=0;exitPerimeter=0;" edge="1" parent="1" source="UM_m8JcwFltim1ismA3V-5">
          <mxGeometry width="50" height="50" relative="1" as="geometry">
            <mxPoint x="40" y="700" as="sourcePoint" />
            <mxPoint x="590" y="710" as="targetPoint" />
          </mxGeometry>
        </mxCell>
        <mxCell id="UM_m8JcwFltim1ismA3V-11" value="" style="ellipse;whiteSpace=wrap;html=1;aspect=fixed;" vertex="1" parent="1">
          <mxGeometry x="40" y="650" width="50" height="50" as="geometry" />
        </mxCell>
        <mxCell id="UM_m8JcwFltim1ismA3V-13" value="" style="shape=process;whiteSpace=wrap;html=1;backgroundOutline=1;" vertex="1" parent="1">
          <mxGeometry x="275" y="650" width="260" height="50" as="geometry" />
        </mxCell>
        <mxCell id="UM_m8JcwFltim1ismA3V-14" value="" style="ellipse;shape=cloud;whiteSpace=wrap;html=1;" vertex="1" parent="1">
          <mxGeometry x="110" y="657.5" width="50" height="35" as="geometry" />
        </mxCell>
        <mxCell id="UM_m8JcwFltim1ismA3V-15" value="" style="ellipse;shape=cloud;whiteSpace=wrap;html=1;" vertex="1" parent="1">
          <mxGeometry x="170" y="657.5" width="50" height="35" as="geometry" />
        </mxCell>
        <mxCell id="UM_m8JcwFltim1ismA3V-17" value="&lt;font style=&quot;font-size: 24px;&quot;&gt;&lt;b&gt;&lt;u&gt;landings&lt;/u&gt;&lt;/b&gt;&lt;/font&gt;" style="rounded=1;whiteSpace=wrap;html=1;" vertex="1" parent="1">
          <mxGeometry x="610" y="657.5" width="140" height="190" as="geometry" />
        </mxCell>
        <mxCell id="UM_m8JcwFltim1ismA3V-20" value="&lt;font style=&quot;font-size: 24px;&quot;&gt;&lt;b&gt;&lt;u&gt;takeofs&lt;/u&gt;&lt;/b&gt;&lt;/font&gt;" style="rounded=1;whiteSpace=wrap;html=1;" vertex="1" parent="1">
          <mxGeometry x="610" y="880" width="140" height="190" as="geometry" />
        </mxCell>
        <mxCell id="UM_m8JcwFltim1ismA3V-30" value="" style="ellipse;whiteSpace=wrap;html=1;aspect=fixed;" vertex="1" parent="1">
          <mxGeometry x="270" y="1190" width="40" height="40" as="geometry" />
        </mxCell>
        <mxCell id="UM_m8JcwFltim1ismA3V-32" value="" style="ellipse;whiteSpace=wrap;html=1;aspect=fixed;" vertex="1" parent="1">
          <mxGeometry x="280" y="1050" width="40" height="40" as="geometry" />
        </mxCell>
        <mxCell id="UM_m8JcwFltim1ismA3V-38" value="" style="ellipse;whiteSpace=wrap;html=1;aspect=fixed;" vertex="1" parent="1">
          <mxGeometry x="430" y="1230" width="40" height="40" as="geometry" />
        </mxCell>
        <mxCell id="UM_m8JcwFltim1ismA3V-40" value="" style="ellipse;whiteSpace=wrap;html=1;aspect=fixed;" vertex="1" parent="1">
          <mxGeometry x="260" y="740" width="40" height="40" as="geometry" />
        </mxCell>
        <mxCell id="UM_m8JcwFltim1ismA3V-42" value="" style="ellipse;whiteSpace=wrap;html=1;aspect=fixed;direction=west;" vertex="1" parent="1">
          <mxGeometry x="160" y="820" width="40" height="40" as="geometry" />
        </mxCell>
        <mxCell id="UM_m8JcwFltim1ismA3V-44" value="" style="ellipse;whiteSpace=wrap;html=1;aspect=fixed;" vertex="1" parent="1">
          <mxGeometry x="90" y="955" width="40" height="40" as="geometry" />
        </mxCell>
        <mxCell id="UM_m8JcwFltim1ismA3V-46" value="" style="ellipse;whiteSpace=wrap;html=1;aspect=fixed;" vertex="1" parent="1">
          <mxGeometry x="75" y="1090" width="40" height="40" as="geometry" />
        </mxCell>
        <mxCell id="UM_m8JcwFltim1ismA3V-47" value="" style="ellipse;whiteSpace=wrap;html=1;aspect=fixed;" vertex="1" parent="1">
          <mxGeometry x="280" y="730" width="20" height="20" as="geometry" />
        </mxCell>
        <mxCell id="UM_m8JcwFltim1ismA3V-54" value="" style="ellipse;whiteSpace=wrap;html=1;aspect=fixed;" vertex="1" parent="1">
          <mxGeometry x="440" y="1050" width="40" height="40" as="geometry" />
        </mxCell>
        <mxCell id="UM_m8JcwFltim1ismA3V-55" value="" style="shape=link;html=1;rounded=0;entryX=0;entryY=1;entryDx=0;entryDy=0;exitX=0;exitY=1;exitDx=0;exitDy=0;" edge="1" parent="1" source="UM_m8JcwFltim1ismA3V-69" target="UM_m8JcwFltim1ismA3V-40">
          <mxGeometry width="100" relative="1" as="geometry">
            <mxPoint x="300" y="1020" as="sourcePoint" />
            <mxPoint x="400" y="1020" as="targetPoint" />
          </mxGeometry>
        </mxCell>
        <mxCell id="UM_m8JcwFltim1ismA3V-56" value="" style="shape=link;html=1;rounded=0;exitX=1;exitY=0.5;exitDx=0;exitDy=0;" edge="1" parent="1" source="UM_m8JcwFltim1ismA3V-30" target="UM_m8JcwFltim1ismA3V-38">
          <mxGeometry width="100" relative="1" as="geometry">
            <mxPoint x="204" y="836" as="sourcePoint" />
            <mxPoint x="276" y="784" as="targetPoint" />
          </mxGeometry>
        </mxCell>
        <mxCell id="UM_m8JcwFltim1ismA3V-57" value="" style="shape=link;html=1;rounded=0;exitX=1;exitY=0.5;exitDx=0;exitDy=0;" edge="1" parent="1" source="UM_m8JcwFltim1ismA3V-32" target="UM_m8JcwFltim1ismA3V-54">
          <mxGeometry width="100" relative="1" as="geometry">
            <mxPoint x="214" y="846" as="sourcePoint" />
            <mxPoint x="286" y="794" as="targetPoint" />
          </mxGeometry>
        </mxCell>
        <mxCell id="UM_m8JcwFltim1ismA3V-58" value="" style="shape=link;html=1;rounded=0;" edge="1" parent="1" source="UM_m8JcwFltim1ismA3V-46" target="UM_m8JcwFltim1ismA3V-32">
          <mxGeometry width="100" relative="1" as="geometry">
            <mxPoint x="224" y="856" as="sourcePoint" />
            <mxPoint x="296" y="804" as="targetPoint" />
          </mxGeometry>
        </mxCell>
        <mxCell id="UM_m8JcwFltim1ismA3V-59" value="" style="shape=link;html=1;rounded=0;entryX=0;entryY=0;entryDx=0;entryDy=0;exitX=1;exitY=0.5;exitDx=0;exitDy=0;" edge="1" parent="1" source="UM_m8JcwFltim1ismA3V-46" target="UM_m8JcwFltim1ismA3V-30">
          <mxGeometry width="100" relative="1" as="geometry">
            <mxPoint x="234" y="866" as="sourcePoint" />
            <mxPoint x="306" y="814" as="targetPoint" />
          </mxGeometry>
        </mxCell>
        <mxCell id="UM_m8JcwFltim1ismA3V-60" value="" style="shape=link;html=1;rounded=0;entryX=0.5;entryY=1;entryDx=0;entryDy=0;exitX=0.5;exitY=0;exitDx=0;exitDy=0;" edge="1" parent="1" source="UM_m8JcwFltim1ismA3V-46" target="UM_m8JcwFltim1ismA3V-44">
          <mxGeometry width="100" relative="1" as="geometry">
            <mxPoint x="244" y="876" as="sourcePoint" />
            <mxPoint x="316" y="824" as="targetPoint" />
          </mxGeometry>
        </mxCell>
        <mxCell id="UM_m8JcwFltim1ismA3V-61" value="" style="shape=link;html=1;rounded=0;entryX=0.5;entryY=0;entryDx=0;entryDy=0;exitX=1;exitY=0;exitDx=0;exitDy=0;" edge="1" parent="1" source="UM_m8JcwFltim1ismA3V-44" target="UM_m8JcwFltim1ismA3V-42">
          <mxGeometry width="100" relative="1" as="geometry">
            <mxPoint x="254" y="886" as="sourcePoint" />
            <mxPoint x="326" y="834" as="targetPoint" />
          </mxGeometry>
        </mxCell>
        <mxCell id="UM_m8JcwFltim1ismA3V-63" value="" style="rounded=1;whiteSpace=wrap;html=1;" vertex="1" parent="1">
          <mxGeometry x="510" y="950" width="40" height="410" as="geometry" />
        </mxCell>
        <mxCell id="UM_m8JcwFltim1ismA3V-64" value="" style="shape=link;html=1;rounded=0;entryX=0;entryY=0.75;entryDx=0;entryDy=0;" edge="1" parent="1" source="UM_m8JcwFltim1ismA3V-38" target="UM_m8JcwFltim1ismA3V-63">
          <mxGeometry width="100" relative="1" as="geometry">
            <mxPoint x="330" y="1080" as="sourcePoint" />
            <mxPoint x="450" y="1080" as="targetPoint" />
          </mxGeometry>
        </mxCell>
        <mxCell id="UM_m8JcwFltim1ismA3V-65" value="" style="shape=link;html=1;rounded=0;entryX=-0.025;entryY=0.301;entryDx=0;entryDy=0;entryPerimeter=0;" edge="1" parent="1" target="UM_m8JcwFltim1ismA3V-63">
          <mxGeometry width="100" relative="1" as="geometry">
            <mxPoint x="480" y="1073" as="sourcePoint" />
            <mxPoint x="460" y="1090" as="targetPoint" />
          </mxGeometry>
        </mxCell>
        <mxCell id="UM_m8JcwFltim1ismA3V-66" value="" style="ellipse;whiteSpace=wrap;html=1;aspect=fixed;" vertex="1" parent="1">
          <mxGeometry x="115" y="950" width="20" height="20" as="geometry" />
        </mxCell>
        <mxCell id="UM_m8JcwFltim1ismA3V-67" value="" style="ellipse;whiteSpace=wrap;html=1;aspect=fixed;" vertex="1" parent="1">
          <mxGeometry x="300" y="1040" width="20" height="20" as="geometry" />
        </mxCell>
        <mxCell id="UM_m8JcwFltim1ismA3V-68" value="" style="ellipse;whiteSpace=wrap;html=1;aspect=fixed;" vertex="1" parent="1">
          <mxGeometry x="460" y="1040" width="20" height="20" as="geometry" />
        </mxCell>
        <mxCell id="UM_m8JcwFltim1ismA3V-71" value="" style="shape=link;html=1;rounded=0;entryX=0;entryY=1;entryDx=0;entryDy=0;exitX=0;exitY=1;exitDx=0;exitDy=0;" edge="1" parent="1" source="UM_m8JcwFltim1ismA3V-42" target="UM_m8JcwFltim1ismA3V-69">
          <mxGeometry width="100" relative="1" as="geometry">
            <mxPoint x="194" y="826" as="sourcePoint" />
            <mxPoint x="266" y="774" as="targetPoint" />
          </mxGeometry>
        </mxCell>
        <mxCell id="UM_m8JcwFltim1ismA3V-69" value="" style="ellipse;whiteSpace=wrap;html=1;aspect=fixed;" vertex="1" parent="1">
          <mxGeometry x="185" y="820" width="20" height="20" as="geometry" />
        </mxCell>
        <mxCell id="UM_m8JcwFltim1ismA3V-72" value="" style="ellipse;whiteSpace=wrap;html=1;aspect=fixed;" vertex="1" parent="1">
          <mxGeometry x="450" y="1220" width="20" height="20" as="geometry" />
        </mxCell>
        <mxCell id="UM_m8JcwFltim1ismA3V-73" value="" style="ellipse;whiteSpace=wrap;html=1;aspect=fixed;direction=south;" vertex="1" parent="1">
          <mxGeometry x="290" y="1190" width="20" height="20" as="geometry" />
        </mxCell>
        <mxCell id="UM_m8JcwFltim1ismA3V-74" value="" style="ellipse;whiteSpace=wrap;html=1;aspect=fixed;" vertex="1" parent="1">
          <mxGeometry x="100" y="1090" width="20" height="20" as="geometry" />
        </mxCell>
        <mxCell id="UM_m8JcwFltim1ismA3V-75" value="" style="ellipse;whiteSpace=wrap;html=1;aspect=fixed;" vertex="1" parent="1">
          <mxGeometry x="535" y="940" width="20" height="20" as="geometry" />
        </mxCell>
        <mxCell id="UM_m8JcwFltim1ismA3V-77" value="" style="ellipse;shape=cloud;whiteSpace=wrap;html=1;" vertex="1" parent="1">
          <mxGeometry x="415" y="810" width="120" height="80" as="geometry" />
        </mxCell>
        <mxCell id="UM_m8JcwFltim1ismA3V-78" value="" style="ellipse;shape=cloud;whiteSpace=wrap;html=1;" vertex="1" parent="1">
          <mxGeometry x="420" y="847.5" width="115" height="60" as="geometry" />
        </mxCell>
        <mxCell id="UM_m8JcwFltim1ismA3V-79" value="" style="ellipse;shape=cloud;whiteSpace=wrap;html=1;" vertex="1" parent="1">
          <mxGeometry x="366" y="840" width="96" height="50" as="geometry" />
        </mxCell>
        <mxCell id="UM_m8JcwFltim1ismA3V-81" value="" style="endArrow=none;html=1;rounded=0;entryX=0.5;entryY=1;entryDx=0;entryDy=0;exitX=0.5;exitY=0;exitDx=0;exitDy=0;" edge="1" parent="1" source="UM_m8JcwFltim1ismA3V-2">
          <mxGeometry width="50" height="50" relative="1" as="geometry">
            <mxPoint x="320" y="330" as="sourcePoint" />
            <mxPoint x="520" y="170" as="targetPoint" />
          </mxGeometry>
        </mxCell>
        <mxCell id="UM_m8JcwFltim1ismA3V-82" value="" style="shape=cylinder3;whiteSpace=wrap;html=1;boundedLbl=1;backgroundOutline=1;size=15;" vertex="1" parent="1">
          <mxGeometry x="460" y="60" width="60" height="80" as="geometry" />
        </mxCell>
        <mxCell id="UM_m8JcwFltim1ismA3V-83" value="" style="shape=cylinder3;whiteSpace=wrap;html=1;boundedLbl=1;backgroundOutline=1;size=15;" vertex="1" parent="1">
          <mxGeometry x="515" y="60" width="60" height="80" as="geometry" />
        </mxCell>
        <mxCell id="UM_m8JcwFltim1ismA3V-84" value="database" style="shape=cylinder3;whiteSpace=wrap;html=1;boundedLbl=1;backgroundOutline=1;size=15;" vertex="1" parent="1">
          <mxGeometry x="490" y="90" width="60" height="80" as="geometry" />
        </mxCell>
        <mxCell id="UM_m8JcwFltim1ismA3V-86" value="plain" style="swimlane;whiteSpace=wrap;html=1;" vertex="1" parent="1">
          <mxGeometry x="55" y="420" width="105" height="150" as="geometry" />
        </mxCell>
        <mxCell id="UM_m8JcwFltim1ismA3V-94" value="&lt;div style=&quot;text-align: left;&quot;&gt;&lt;span style=&quot;background-color: initial;&quot;&gt;- type&lt;/span&gt;&lt;/div&gt;&lt;div style=&quot;text-align: left;&quot;&gt;&lt;span style=&quot;background-color: initial;&quot;&gt;-location&lt;/span&gt;&lt;/div&gt;&lt;div style=&quot;text-align: left;&quot;&gt;&lt;span style=&quot;background-color: initial;&quot;&gt;-askLnding&lt;/span&gt;&lt;/div&gt;&lt;div style=&quot;text-align: left;&quot;&gt;&lt;span style=&quot;background-color: initial;&quot;&gt;&amp;nbsp; /takeoff()&lt;/span&gt;&lt;/div&gt;&lt;div style=&quot;text-align: left;&quot;&gt;&lt;span style=&quot;background-color: initial;&quot;&gt;-updateLocation()&lt;/span&gt;&lt;/div&gt;&lt;div style=&quot;text-align: left;&quot;&gt;&lt;span style=&quot;background-color: initial;&quot;&gt;&lt;br&gt;&lt;/span&gt;&lt;/div&gt;&lt;div style=&quot;text-align: left;&quot;&gt;&lt;span style=&quot;background-color: initial;&quot;&gt;&lt;br&gt;&lt;/span&gt;&lt;/div&gt;" style="text;html=1;align=center;verticalAlign=middle;resizable=0;points=[];autosize=1;strokeColor=none;fillColor=none;" vertex="1" parent="UM_m8JcwFltim1ismA3V-86">
          <mxGeometry x="-5" y="55" width="120" height="110" as="geometry" />
        </mxCell>
        <mxCell id="UM_m8JcwFltim1ismA3V-87" value="takeoff" style="swimlane;whiteSpace=wrap;html=1;" vertex="1" parent="1">
          <mxGeometry x="470" y="420" width="90" height="150" as="geometry" />
        </mxCell>
        <mxCell id="UM_m8JcwFltim1ismA3V-88" value="landing" style="swimlane;whiteSpace=wrap;html=1;" vertex="1" parent="1">
          <mxGeometry x="350" y="420" width="90" height="150" as="geometry" />
        </mxCell>
        <mxCell id="UM_m8JcwFltim1ismA3V-89" value="station" style="swimlane;whiteSpace=wrap;html=1;" vertex="1" parent="1">
          <mxGeometry x="210" y="420" width="105" height="150" as="geometry" />
        </mxCell>
        <mxCell id="UM_m8JcwFltim1ismA3V-97" value="&lt;div style=&quot;border-color: var(--border-color); text-align: left;&quot;&gt;- st. number&lt;/div&gt;&lt;div style=&quot;border-color: var(--border-color); text-align: left;&quot;&gt;&lt;span style=&quot;border-color: var(--border-color); background-color: initial;&quot;&gt;-plainsCounter&lt;/span&gt;&lt;/div&gt;&lt;div style=&quot;border-color: var(--border-color); text-align: left;&quot;&gt;&lt;span style=&quot;border-color: var(--border-color); background-color: initial;&quot;&gt;-&lt;/span&gt;&lt;/div&gt;&lt;div style=&quot;border-color: var(--border-color); text-align: left;&quot;&gt;&lt;span style=&quot;border-color: var(--border-color); background-color: initial;&quot;&gt;&amp;nbsp; /takeoff()&lt;/span&gt;&lt;/div&gt;&lt;div style=&quot;border-color: var(--border-color); text-align: left;&quot;&gt;&lt;span style=&quot;border-color: var(--border-color); background-color: initial;&quot;&gt;-updateLocation()&lt;/span&gt;&lt;/div&gt;" style="text;html=1;align=center;verticalAlign=middle;resizable=0;points=[];autosize=1;strokeColor=none;fillColor=none;" vertex="1" parent="UM_m8JcwFltim1ismA3V-89">
          <mxGeometry x="-15" y="30" width="120" height="90" as="geometry" />
        </mxCell>
      </root>
    </mxGraphModel>
  </diagram>
</mxfile>
